#tb 0: 1/1000
0,          0,          0,        0,   460800, 0x85b053af
0,        122,        122,        0,   460800, 0xfbdbb291
0,        245,        245,        0,   460800, 0x1389b3d9
0,        367,        367,        0,   460800, 0xc81e8326
0,        490,        490,        0,   460800, 0xb0028333
0,        612,        612,        0,   460800, 0x002b8619
0,        735,        735,        0,   460800, 0xeb808d70
0,        857,        857,        0,   460800, 0xe8288d27
0,        980,        980,        0,   460800, 0xcfbe8bcc
0,       1102,       1102,        0,   460800, 0x682b8d38
0,       1224,       1224,        0,   460800, 0x5879cd04
0,       1347,       1347,        0,   460800, 0x88a6a3e6
0,       1469,       1469,        0,   460800, 0xc491db72
0,       1592,       1592,        0,   460800, 0xb779d5cc
